<svg xmlns="http://www.w3.org/2000/svg" width="1803.57" height="455.97" viewBox="0 0 1803.57 455.97">
    <defs>
        <style>
            .cls-1,.cls-10,.cls-11,.cls-12,.cls-13,.cls-15,.cls-2,.cls-3,.cls-4,.cls-5,.cls-6,.cls-7,.cls-8,.cls-9{fill:rgba(0,0,0,0);stroke:#e0e1e3}.cls-1,.cls-3,.cls-6,.cls-7,.cls-9{stroke-width:1.3px}.cls-1,.cls-10,.cls-11,.cls-12,.cls-13,.cls-2,.cls-3,.cls-4,.cls-5,.cls-6{fill-rule:evenodd}.cls-10,.cls-12,.cls-13,.cls-15,.cls-3,.cls-4,.cls-5,.cls-6,.cls-9{stroke-linecap:round}.cls-10,.cls-12,.cls-13,.cls-15,.cls-3,.cls-4,.cls-9{stroke-linejoin:round}.cls-10{stroke-dasharray:4}.cls-11{stroke-dasharray:2 4}.cls-12{stroke-dasharray:1.779 1.779}.cls-13{stroke-dasharray:1.609 1.609}.cls-14{fill:#e0e1e3}
        </style>
    </defs>
    <g id="Group_165" data-name="Group 165" transform="translate(-68.43 -138.35)">
        <g id="hemijski-proizvodi-za-naftnu-i-plinsku-industriju" transform="rotate(-25.97 435.78 -111.185)">
            <path id="Path_21" d="M13.4 54.3H8.6A2.326 2.326 0 0 1 6.3 52v-3.3h9.4V52a2.263 2.263 0 0 1-2.3 2.3zm32.7 0h-4.8A2.326 2.326 0 0 1 39 52v-3.3h9.4V52a2.263 2.263 0 0 1-2.3 2.3zm2.607-35.538v4.3h-42.7v-4.3z" class="cls-1" data-name="Path 21"/>
            <path id="Path_22" d="M48.7 14.2v27.1a2.582 2.582 0 0 1-2.6 2.6H8.7a2.582 2.582 0 0 1-2.6-2.6V14.2a2.582 2.582 0 0 0-2.6-2.6 2.582 2.582 0 0 0-2.6 2.6v29.9c0 1.5.3 4.6 4.6 4.6h43.9c2.9 0 4.6-2.3 4.6-5.6V14.2a2.582 2.582 0 0 0-2.6-2.6 2.669 2.669 0 0 0-2.7 2.6z" class="cls-1" data-name="Path 22"/>
            <path id="Path_23" d="M13.5 39.8A3.8 3.8 0 0 1 9.7 36V23.1h7.6V36a3.8 3.8 0 0 1-3.8 3.8zm3.9-38.6H9.6a2.051 2.051 0 0 0-2.1 2.1 2.051 2.051 0 0 0 2.1 2.1h.1v13.4h7.6V5.4h.1a2.051 2.051 0 0 0 2.1-2.1 2.112 2.112 0 0 0-2.1-2.1zm24 38.6a3.8 3.8 0 0 1-3.8-3.8V23.1h7.6V36a3.933 3.933 0 0 1-3.8 3.8zm3.8-38.6h-7.8a2.051 2.051 0 0 0-2.1 2.1 2.051 2.051 0 0 0 2.1 2.1h.1v13.4h7.6V5.4h.1a2.051 2.051 0 0 0 2.1-2.1 1.994 1.994 0 0 0-2.1-2.1zM27.4 39.8a3.8 3.8 0 0 1-3.8-3.8V23.1h7.6V36a3.8 3.8 0 0 1-3.8 3.8zm3.9-38.6h-7.8a2.051 2.051 0 0 0-2.1 2.1 2.051 2.051 0 0 0 2.1 2.1h.1v13.4h7.6V5.4h.1a2.051 2.051 0 0 0 2.1-2.1 2.112 2.112 0 0 0-2.1-2.1z" class="cls-1" data-name="Path 23"/>
            <path id="Path_24" d="M9.7 10a4.041 4.041 0 0 1 2 .6c2.3 1.4 3.1 2.3 5.6 1.8M37.6 10a4.041 4.041 0 0 1 2 .6c2.3 1.4 3.1 2.3 5.6 1.8m-14 15.4a4.041 4.041 0 0 0-2 .6c-2.3 1.4-3.1 2.3-5.6 1.8" class="cls-2" data-name="Path 24"/>
        </g>
        <g id="nafta-x-2-c-gorivo-x-2-c-drva-za-ogrijev-x-2-c-struja-i-drugi-izvori-energije" transform="rotate(-9 2652.64 -223.714)">
            <path id="Path_25" d="M3.9 5.9h32.6v48.7H3.9zm35.3 16.3H1.6M39.2 5.9H1.6M39 38.3H1.3M39 54.6H1.3M11.6 1.5H8a1.324 1.324 0 0 0-1.3 1.3v3.1h6.2V2.8a1.206 1.206 0 0 0-1.3-1.3zm41.5 27.1h-3a1.324 1.324 0 0 0-1.3 1.3v2.8h5.6v-2.8a1.206 1.206 0 0 0-1.3-1.3z" class="cls-3" data-name="Path 25"/>
            <path id="Path_26" d="M39.3 54.6h11.6a3.585 3.585 0 0 0 3.6-3.6V32.6h-5.6l-9.4 2.2a3.854 3.854 0 0 0-3 3.8v13.1a2.883 2.883 0 0 0 2.8 2.9zM6.7 8.4v11.3M33.2 8.4v43.3M6.7 24.5v11.4m0 5v5.7m0 3.2v1.9" class="cls-3" data-name="Path 26"/>
            <path id="Path_27" d="M42.4 38.3h7.4v11.5h-7.4zm-21.9-4.6a2.333 2.333 0 0 1-2.4-2.5c.2-1.9 1.6-3.1 2.4-4.4m.2 6.9a2.333 2.333 0 0 0 2.4-2.5c-.2-1.9-1.6-3.1-2.4-4.4m23.4 14.8H48m-3.9 2H48m-3.9 2.1H48" class="cls-4" data-name="Path 27"/>
        </g>
        <g id="namje-taj-x-2-c-uklju-uju-i-kancelarijski-x-2-c-ku-ni-aparati-x-28-osim-osvjetl-x-29" transform="rotate(19 -1422.616 1107.894)">
            <path id="Path_28" d="M5.5 4.5H21v10.1H5.5z" class="cls-5" data-name="Path 28"/>
            <path id="Path_29" d="M7.6 6.7h11.2v5.8H7.6zM33.8.9h16.8v10.2H33.8z" class="cls-5" data-name="Path 29"/>
            <path id="Path_30" d="M27.9 47.8H8.2c-1.5 0-1.4-2.2-1.8-4.1s-1.2-7.2-1.2-7.2-3.9-.4-3.9-3.2c0-2.6 2.8-3.4 4.4-3.1 1.2.2 3.6.7 4.4 5.5a30.292 30.292 0 0 1 .7 7.2h17M10.7 39s7.1-3.7 17.2 0m0 0v3.9M1.3 54.2h53.2m-43.4-6.4v6.4m2.1 0l1.8-6.4" class="cls-6" data-name="Path 30"/>
            <path id="Path_31" d="M9.2 32.6s-2.2-4-3-5.3c-1.4-2.3.6-4.3 3.4-5.2 3.5-1.2 9.7-2.1 18.3-2.1m0 27.8h19.7c1.5 0 1.4-2.2 1.8-4.1s1.2-7.2 1.2-7.2 3.9-.4 3.9-3.2c0-2.6-2.8-3.4-4.4-3.1-1.2.2-3.6.7-4.4 5.5a30.292 30.292 0 0 0-.7 7.2H28M45.1 39s-7.1-3.7-17.2 0m16.8 8.8v6.4m-2.1 0l-1.8-6.4" class="cls-6" data-name="Path 31"/>
            <path id="Path_32" d="M46.6 32.6s2.2-4 3-5.3C51 25 49 23 46.2 22.1c-3.5-1.2-9.7-2.1-18.3-2.1m-14.5 9.3l1.4-1.4m7.6-.9l1.3-1.4m7.7 1.4l1.3-1.4m7.7 3.7l1.3-1.4" class="cls-6" data-name="Path 32"/>
            <path id="Path_33" d="M36 3.1h12.4V9H36z" class="cls-5" data-name="Path 33"/>
        </g>
        <g id="ra-unarska-oprema-x-28-hardverska-i-softverska-x-29" transform="rotate(10.02 -839.983 2701.754)">
            <path id="Path_34" d="M.8.3h35v26.9H.8z" class="cls-4" data-name="Path 34"/>
            <path id="Path_35" d="M4.1 3.4h28.4v20.7H4.1zm34.4 9.9h13.8v21.5H38.5z" class="cls-4" data-name="Path 35"/>
            <path id="Path_36" d="M48.8 18.6h-6.9a1.155 1.155 0 0 1-1.2-1.2v-.2a1.155 1.155 0 0 1 1.2-1.2h6.9a1.155 1.155 0 0 1 1.2 1.2v.2a1.216 1.216 0 0 1-1.2 1.2zm0 4.5h-6.9a1.155 1.155 0 0 1-1.2-1.2v-.2a1.155 1.155 0 0 1 1.2-1.2h6.9a1.155 1.155 0 0 1 1.2 1.2v.2a1.29 1.29 0 0 1-1.2 1.2zM9 31.9h18.5v2.9H9z" class="cls-4" data-name="Path 36"/>
            <path id="Path_37" d="M.8 34.9h53.1v5.5H.8z" class="cls-3" data-name="Path 37"/>
            <path id="Path_38" d="M15.1 31.8l.5-4m5.8 4l-.5-4" class="cls-4" data-name="Path 38"/>
            <path id="Path_39" d="M6 53.6V40.4m3.6 13.2V40.4M45 53.6V40.4m3.6 13.2V40.4" class="cls-3" data-name="Path 39"/>
            <path id="Path_40" d="M41.2 47H13.3a3.8 3.8 0 0 1-3.8-3.8v-2.9H45v2.9a3.8 3.8 0 0 1-3.8 3.8z" class="cls-6" data-name="Path 40"/>
            <path id="Path_41" d="M10 44.3h34.5" class="cls-5" data-name="Path 41"/>
            <circle id="Ellipse_1" cx="1.8" cy="1.8" r="1.8" class="cls-7" data-name="Ellipse 1" transform="translate(43.5 25.7)"/>
            <path id="Path_42" d="M40.7 31.9h9.2" class="cls-4" data-name="Path 42"/>
        </g>
        <g id="radovi-na-instalacijama" transform="rotate(-16 1320.15 -763.553)">
            <path id="Path_43" d="M.1 53.1h53.3M4 53.1V38m19.1 15.1v-5.9m0-2.3v-2.1" class="cls-6" data-name="Path 43"/>
            <path id="Path_44" d="M9.1 43.9h9.2v9.2H9.1z" class="cls-2" data-name="Path 44"/>
            <circle id="Ellipse_2" cx="2.5" cy="2.5" r="2.5" class="cls-8" data-name="Ellipse 2" transform="translate(11.2 35.7)"/>
            <path id="Path_45" d="M22.1 32l-8.3-6L.2 35.9v4.7l13.5-9.9 5.3 4" class="cls-3" data-name="Path 45"/>
            <circle id="Ellipse_3" cx="11.1" cy="11.1" r="11.1" class="cls-9" data-name="Ellipse 3" transform="translate(25.2 25)"/>
            <path id="Path_46" d="M50.3 7.4h-47V3.7A3.585 3.585 0 0 1 6.9.1h39.7a3.585 3.585 0 0 1 3.6 3.6v3.7h.1zm-45.5 0v24.9m44-24.9v16.9m0 23.5v5" class="cls-3" data-name="Path 46"/>
            <path id="Path_47" d="M4.8 10.6h44" class="cls-4" data-name="Path 47"/>
            <path id="Path_48" d="M33.6 46.7V40a5.944 5.944 0 0 1-3.8-5.6 6.148 6.148 0 0 1 3.8-5.7v5l2.7 1.7" class="cls-6" data-name="Path 48"/>
            <path id="Path_49" d="M38.9 46.6V40a5.944 5.944 0 0 0 3.8-5.6 6.148 6.148 0 0 0-3.8-5.7v5l-2.7 1.7" class="cls-6" data-name="Path 49"/>
            <path id="Path_50" d="M8.2 13.9h8.9v8.9H8.2zm21.7 8.9h-7.6v-8.9h8.9v8.3m5.2-3.2v-5.1h8.9v8.9h-2.4" class="cls-5" data-name="Path 50"/>
            <circle id="Ellipse_4" cx="11.1" cy="11.1" r="11.1" class="cls-9" data-name="Ellipse 4" transform="translate(25.2 25)"/>
            <path id="Path_51" d="M50.6 32.9a16.307 16.307 0 0 0-2-4.9l1.5-2.3-3.5-3.5-2.4 1.4a16.307 16.307 0 0 0-4.9-2l-.6-2.7h-4.9l-.7 2.7a16.307 16.307 0 0 0-4.9 2l-2.3-1.5-3.5 3.5 1.4 2.4a16.307 16.307 0 0 0-2 4.9l-2.7.6v4.9l2.7.7a16.307 16.307 0 0 0 2 4.9l-1.5 2.3 3.5 3.5 2.4-1.4a12.4 12.4 0 0 0 4.9 2l.6 2.6h4.9l.7-2.6a16.307 16.307 0 0 0 4.9-2l2.3 1.5 3.5-3.5-1.4-2.4a12.4 12.4 0 0 0 2-4.9l2.7-.6v-4.9l-2.7-.7z" class="cls-6" data-name="Path 51"/>
        </g>
        <g id="sprovo-enje-i-izrada-mjera-za-tite-na-radu-i-sredstava-na-radu" transform="rotate(5.13 -2036.734 15998.045)">
            <path id="Path_52" d="M28.117 55.018H9.4v-9.056c0-6.038 4.327-9.862 10.969-9.862h2.918l4.73 6.642" class="cls-3" data-name="Path 52" transform="translate(.054 .218)"/>
            <path id="Path_53" d="M14.7 55.012V37.2" class="cls-4" data-name="Path 53" transform="translate(.087 .225)"/>
            <path id="Path_54" d="M28.1 55.018h18.718v-9.056c0-6.038-4.327-9.862-10.969-9.862h-2.917L27.9 42.742" class="cls-3" data-name="Path 54" transform="translate(.17 .218)"/>
            <path id="Path_55" d="M41.4 55.012V37.2" class="cls-4" data-name="Path 55" transform="translate(.255 .225)"/>
            <path id="Path_56" d="M36.7 55.017V36.4" class="cls-10" data-name="Path 56" transform="translate(.226 .22)"/>
            <path id="Path_57" d="M54.347 55.068V28.3m-3.824 26.768V28.3M46.9 55.068V28.3" class="cls-11" data-name="Path 57" transform="translate(.29 .169)"/>
            <path id="Path_58" d="M18.8 55.017V36.4" class="cls-10" data-name="Path 58" transform="translate(.113 .22)"/>
            <path id="Path_59" d="M23.3 36.423V32.7m9.761 3.723V32.7" class="cls-4" data-name="Path 59" transform="translate(.141 .197)"/>
            <path id="Path_60" d="M35.5 21.9l.3.6a8.222 8.222 0 1 1-15.1-.5m3.421 15.5a6.346 6.346 0 0 0 7.95 0" class="cls-3" data-name="Path 60" transform="translate(.12 .129)"/>
            <path id="Path_61" d="M19.91 26.2a1.6 1.6 0 0 0-1.41 2.214 2.711 2.711 0 0 0 2.818 1.811M36.312 26.2a1.6 1.6 0 0 1 1.409 2.214 2.711 2.711 0 0 1-2.821 1.811" class="cls-4" data-name="Path 61" transform="translate(.11 .156)"/>
            <path id="Path_62" d="M27.911 54.985V42.91M26.2 9.4h3.421v9.157H26.2z" class="cls-3" data-name="Path 62" transform="translate(.159 .05)"/>
            <path id="Path_63" d="M35.1 21.469H20.209a1.509 1.509 0 0 1 0-3.019H35.1a1.548 1.548 0 0 1 1.509 1.509 1.482 1.482 0 0 1-1.509 1.51zm-15.2-2.918c0-2.516.4-8.151 6.44-8.151m9.761 8.151c0-2.516-.4-8.151-6.44-8.151" class="cls-3" data-name="Path 63" transform="translate(.112 .056)"/>
            <path id="Path_64" d="M42.9 12.428l3.019 2.717 4.83-7.245" class="cls-4" data-name="Path 64" transform="translate(.265 .04)"/>
            <path id="Path_65" d="M.9 1.5v53.837M3.214 1.5v53.837M13.982 1.5v35.925M16.3 1.5v35.422M13.96 5.794v2.314H3.192V5.794zm.034 8.184v2.314H3.227v-2.314zm-.056 8.1v2.314H3.17v-2.318zm.034 8.185v2.314H3.2v-2.318zM10.56 41.35H3.214v-2.315h9.359M9.54 47.147v2.314H3.2v-2.314zm45.1-22.2H44.372v14.39" class="cls-5" data-name="Path 65"/>
            <path id="Path_66" d="M46.847 1.5A10.409 10.409 0 0 1 39.4 4.62v7.447c0 8.755 7.447 8.554 7.447 8.554m0-19.12a10.409 10.409 0 0 0 7.447 3.12v7.447c0 8.554-7.447 8.554-7.447 8.554" class="cls-3" data-name="Path 66" transform="translate(.243)"/>
        </g>
        <g id="strukture-i-materijali-za-gra-evinu-pomo-ni-proizvodi-gra-evinstva-x-28-osim-el-opreme-x-29" transform="rotate(12.04 -1461.311 8661.966)">
            <path id="Path_67" d="M38.5 47.6H25.8a.9.9 0 0 0-.9.9v5.1a.9.9 0 0 0 .9.9h12.7a.9.9 0 0 0 .9-.9v-5.1a.9.9 0 0 0-.9-.9zm-14.6 0H11.2a.9.9 0 0 0-.9.9v5.1a.9.9 0 0 0 .9.9h12.7a.9.9 0 0 0 .9-.9v-5.1c.1-.5-.3-.9-.9-.9zm29.1 0H40.3a.9.9 0 0 0-.9.9v5.1a.9.9 0 0 0 .9.9H53a.9.9 0 0 0 .9-.9v-5.1c.1-.5-.3-.9-.9-.9zm-21.6-6.9H18.7a.9.9 0 0 0-.9.9v5.1a.9.9 0 0 0 .9.9h12.7a.9.9 0 0 0 .9-.9v-5.1c.1-.5-.3-.9-.9-.9zm14.6 0H33.3a.9.9 0 0 0-.9.9v5.1a.9.9 0 0 0 .9.9H46a.9.9 0 0 0 .9-.9v-5.1a.9.9 0 0 0-.9-.9zm-7.5-7H25.8a.9.9 0 0 0-.9.9v5.1a.9.9 0 0 0 .9.9h12.7a.9.9 0 0 0 .9-.9v-5.1a.9.9 0 0 0-.9-.9zm14.5 0H40.3a.9.9 0 0 0-.9.9v5.1a.9.9 0 0 0 .9.9H53a.9.9 0 0 0 .9-.9v-5.1c.1-.5-.3-.9-.9-.9zm-21.6-6.9H18.7a.9.9 0 0 0-.9.9v5.1a.9.9 0 0 0 .9.9h12.7a.9.9 0 0 0 .9-.9v-5.1c.1-.5-.3-.9-.9-.9zm14.6 0H33.3a.9.9 0 0 0-.9.9v5.1a.9.9 0 0 0 .9.9H46a.9.9 0 0 0 .9-.9v-5.1a.9.9 0 0 0-.9-.9zm-7.5-7H25.8a.9.9 0 0 0-.9.9v5.1a.9.9 0 0 0 .9.9h12.7a.9.9 0 0 0 .9-.9v-5.1a.967.967 0 0 0-.9-.9zm14.5 0H40.3a.9.9 0 0 0-.9.9v5.1a.9.9 0 0 0 .9.9H53a.9.9 0 0 0 .9-.9v-5.1c.1-.4-.3-.9-.9-.9zM38.5 5.9H25.8a.9.9 0 0 0-.9.9v5.1a.9.9 0 0 0 .9.9h12.7a.9.9 0 0 0 .9-.9V6.8a.967.967 0 0 0-.9-.9zm14.5 0H40.3a.9.9 0 0 0-.9.9v5.1a.9.9 0 0 0 .9.9H53a.9.9 0 0 0 .9-.9V6.8c.1-.4-.3-.9-.9-.9zm-7 7H33.3a.9.9 0 0 0-.9.9v5.1a.9.9 0 0 0 .9.9H46a.9.9 0 0 0 .9-.9v-5.1a.9.9 0 0 0-.9-.9z" class="cls-6" data-name="Path 67"/>
            <path id="Path_68" d="M7.1 7.8L3 3.7a1.087 1.087 0 0 1 0-1.5l.5-.5a1.088 1.088 0 0 1 1.5 0l4.1 4.1a1.088 1.088 0 0 1 0 1.5l-.5.5a1.088 1.088 0 0 1-1.5 0z" class="cls-5" data-name="Path 68"/>
            <path id="Path_69" d="M8.8 7.6l1.7 1.7.2 4.3 2.9 2.9" class="cls-4" data-name="Path 69"/>
            <path id="Path_70" d="M18.5 21.4L14.8 9.5l-8.2 8.2zm-.7 11.2v-4.7H1l2.4 4.7" class="cls-4" data-name="Path 70"/>
            <g id="Group_8" data-name="Group 8">
                <path id="Path_71" d="M3.4 32.6h1" class="cls-4" data-name="Path 71"/>
                <path id="Path_72" d="M6.2 32.6h9.7" class="cls-12" data-name="Path 72"/>
                <path id="Path_73" d="M16.8 32.6h1" class="cls-4" data-name="Path 73"/>
            </g>
            <g id="Group_9" data-name="Group 9">
                <path id="Path_74" d="M10.3 49.9h-1" class="cls-4" data-name="Path 74"/>
                <path id="Path_75" d="M7.7 49.9H5.3" class="cls-13" data-name="Path 75"/>
                <path id="Path_76" d="M4.5 49.9h-1" class="cls-4" data-name="Path 76"/>
            </g>
            <path id="Path_77" d="M3.5 49.9L1 54.6h9.3v-4.7" class="cls-4" data-name="Path 77"/>
            <path id="Path_78" d="M3.4 32.6s-5.8 7.7.2 17.3M20.1 34s2.1 2.3 1.2 6.7m-7-.9H8.2a1.6 1.6 0 1 1 0-3.2h6.1a1.6 1.6 0 1 1 0 3.2z" class="cls-5" data-name="Path 78"/>
        </g>
        <g id="usluge-informacione-tehnologije-x-2-c-savjetodavne-usluge-x-2-c-izrada-aplikacija-x-2-c-internet-i-podr-ka-1" transform="rotate(22 -610.436 4038.743)">
            <circle id="Ellipse_5" cx="19.4" cy="19.4" r="19.4" class="cls-9" data-name="Ellipse 5" transform="translate(1 1.1)"/>
            <circle id="Ellipse_6" cx="14.4" cy="14.4" r="14.4" class="cls-9" data-name="Ellipse 6" transform="translate(6 6.1)"/>
            <path id="Path_79" d="M36.4 31.5l16.8 16.9a3.465 3.465 0 0 1-4.9 4.9L31.6 36.6m9.3-.6l-4.7 4.9M23 18.2l2.9-3v11.1m-2.5.4h5" class="cls-3" data-name="Path 79"/>
            <g id="Group_10" data-name="Group 10">
                <path id="Path_80" d="M40.4 3.6L42.8 1v9.3m-2.2.4h4.3" class="cls-4" data-name="Path 80"/>
            </g>
            <g id="Group_11" data-name="Group 11">
                <path id="Path_81" d="M42.8 48v6.1m-2.4-6.7l1-1.2m-.8 8.3h4.3" class="cls-4" data-name="Path 81"/>
            </g>
            <path id="Path_82" d="M31.5 3.6L33.9 1v5.5M10.2 3.6L12.6 1v1.7" class="cls-4" data-name="Path 82"/>
            <path id="Path_83" d="M15.8 26.7a3.842 3.842 0 0 1-3.9-3.9V19a3.9 3.9 0 0 1 7.8 0v3.8a3.9 3.9 0 0 1-3.9 3.9z" class="cls-3" data-name="Path 83"/>
            <path id="Path_84" d="M3.7 10.7A3.233 3.233 0 0 1 .9 7.5V4.3A3.329 3.329 0 0 1 4.2 1a3.329 3.329 0 0 1 3.3 3.3v1.8m43.6 4.6a3.329 3.329 0 0 1-3.3-3.3V4.2a3.3 3.3 0 1 1 6.6 0v3.2a3.265 3.265 0 0 1-3.3 3.3z" class="cls-4" data-name="Path 84"/>
            <g id="Group_12" data-name="Group 12">
                <path id="Path_85" d="M11.4 47.3l2.4-2.5v9.3m-2.2.4h4.3" class="cls-4" data-name="Path 85"/>
            </g>
            <g id="Group_13" data-name="Group 13">
                <path id="Path_86" d="M13.8 39.2v1.3m-2.2.4h4.3" class="cls-4" data-name="Path 86"/>
            </g>
            <g id="Group_14" data-name="Group 14">
                <path id="Path_87" d="M23.6 39.9v.6m-2.1.4h4.2" class="cls-4" data-name="Path 87"/>
            </g>
            <g id="Group_15" data-name="Group 15">
                <path id="Path_88" d="M33.9 39.1v1.4m-2.1.4h4.1" class="cls-4" data-name="Path 88"/>
            </g>
            <g id="Group_16" data-name="Group 16">
                <path id="Path_89" d="M2 47.3l2.3-2.5v9.3m-2.1.4h4.3" class="cls-4" data-name="Path 89"/>
            </g>
            <g id="Group_17" data-name="Group 17">
                <path id="Path_90" d="M31.5 47.3l2.4-2.5v9.3m-2.1.4H36" class="cls-4" data-name="Path 90"/>
            </g>
            <path id="Path_91" d="M23.6 54.4a3.329 3.329 0 0 1-3.3-3.3v-2.9a3.3 3.3 0 0 1 6.6 0v2.9a3.329 3.329 0 0 1-3.3 3.3zm-16.1-19v1.9a3.329 3.329 0 0 1-3.3 3.3 3.329 3.329 0 0 1-3.3-3.3v-2.9a3.329 3.329 0 0 1 3.3-3.3" class="cls-4" data-name="Path 91"/>
            <g id="Group_18" data-name="Group 18">
                <path id="Path_92" d="M49.9 18.6l2.4-2.5v9.3m-2.1.4h4.2" class="cls-4" data-name="Path 92"/>
            </g>
            <path id="Path_93" d="M43.1 25.8a3.329 3.329 0 0 1-3.3-3.3v-3.2a3.3 3.3 0 1 1 6.6 0v3.2a3.329 3.329 0 0 1-3.3 3.3z" class="cls-4" data-name="Path 93"/>
            <g id="Group_19" data-name="Group 19">
                <path id="Path_94" d="M49.9 33.7l2.4-2.5v9.3m-2.1.4h4.2" class="cls-4" data-name="Path 94"/>
            </g>
            <g id="Group_20" data-name="Group 20">
                <path id="Path_95" d="M51 46.2l1.3-1.4v2.6m-2.1 7.1h4.2" class="cls-4" data-name="Path 95"/>
            </g>
            <path id="Path_96" d="M39.8 34.5a3.3 3.3 0 0 1 6.6 0v3.2a3.174 3.174 0 0 1-1.3 2.6M16 6.9l-7.6 5.8m13.2-6.4l-5 3.8m-7.1 5.3l-2.9 2.2" class="cls-4" data-name="Path 96"/>
            <circle id="Ellipse_7" cx="1" cy="1" r="1" class="cls-14" data-name="Ellipse 7" transform="translate(10.2 13.1)"/>
            <circle id="Ellipse_8" cx="1" cy="1" r="1" class="cls-14" data-name="Ellipse 8" transform="translate(12.2 11.6)"/>
            <circle id="Ellipse_9" cx="1" cy="1" r="1" class="cls-14" data-name="Ellipse 9" transform="translate(13.9 10.3)"/>
        </g>
        <g id="usluge-istra-ivanja-i-razvoja-kao-i-sli-ne-konsalting-usluge" transform="rotate(-10.02 1596.17 -8770.912)">
            <path id="Path_97" d="M46 36.2a3.011 3.011 0 0 1-2.7 1.7h-40a3.009 3.009 0 0 1-3-3V6.6a3.009 3.009 0 0 1 3-3h40a3.009 3.009 0 0 1 3 3v8.9" class="cls-1" data-name="Path 97"/>
            <path id="Path_98" d="M7.8 37.9h30.9v3.3H7.8z" class="cls-1" data-name="Path 98"/>
            <path id="Path_99" d="M11.8 53.2l3.5-11.9m0 11.9l3.5-11.9m16 11.9l-3.5-11.9m0 11.9l-3.5-11.9" class="cls-3" data-name="Path 99"/>
            <path id="Path_100" d="M26.6 3.6h-7.9V1.7A1.58 1.58 0 0 1 20.3.1h4.6a1.58 1.58 0 0 1 1.6 1.6v1.9h.1z" class="cls-1" data-name="Path 100"/>
            <circle id="Ellipse_10" cx="9.7" cy="9.7" r="9.7" class="cls-7" data-name="Ellipse 10" transform="translate(32 14.2)"/>
            <circle id="Ellipse_11" cx="6.1" cy="6.1" r="6.1" class="cls-7" data-name="Ellipse 11" transform="translate(35.6 17.8)"/>
            <path id="Path_101" d="M52.9 42.2l-1.5.9a1.129 1.129 0 0 1-1.5-.4l-5.3-9.2 3.4-1.9 5.3 9.2a.956.956 0 0 1-.4 1.4z" class="cls-1" data-name="Path 101"/>
            <path id="Path_102" d="M38.8 22h2.1v5.1m-30.1.6h3.6v7.2h-3.6zm-7.2-3.9h3.6v11.1H3.6zm21.5 3.9h3.6v7.2h-3.6zm-7.2-3.9h3.6v11.1h-3.6zm14.7 7.8v3.3h3.3" class="cls-4" data-name="Path 102"/>
            <circle id="Ellipse_12" cx="1.8" cy="1.8" r="1.8" class="cls-15" data-name="Ellipse 12" transform="translate(10.8 18.5)"/>
            <circle id="Ellipse_13" cx="1.8" cy="1.8" r="1.8" class="cls-15" data-name="Ellipse 13" transform="translate(3.6 14.4)"/>
            <circle id="Ellipse_14" cx="1.8" cy="1.8" r="1.8" class="cls-15" data-name="Ellipse 14" transform="translate(17.9 14.4)"/>
            <circle id="Ellipse_15" cx="1.8" cy="1.8" r="1.8" class="cls-15" data-name="Ellipse 15" transform="translate(25.2 18.5)"/>
            <circle id="Ellipse_16" cx="1.8" cy="1.8" r="1.8" class="cls-15" data-name="Ellipse 16" transform="translate(32.5 8.3)"/>
            <path id="Path_103" d="M28.1 18.9l5.2-7.3m-7.9 8l-4-2.7m-7 2.5l3.6-2.6m-11.1.5l3.9 2.2" class="cls-4" data-name="Path 103"/>
        </g>
        <g id="usluge-kanalizacije-x-2-c-odno-enja-sme-a-x-2-c-i-enja-i-o-uvanja-ivotne-sredine-2" transform="rotate(9 -1360.541 10561.327)">
            <path id="Path_104" d="M37 54.3H19.4v-9c0-6 3.3-9.8 9.9-9.8h2.9l4.9 13.6-.1 5.2z" class="cls-3" data-name="Path 104"/>
            <path id="Path_105" d="M32.2 35.5l-2.7 10.1 7.5 3.5m-11.3 5.2v-6" class="cls-4" data-name="Path 105"/>
            <path id="Path_106" d="M37.1 54.3h17.6v-9c0-6-3.3-9.8-9.9-9.8h-2.9L37 49.1z" class="cls-3" data-name="Path 106"/>
            <path id="Path_107" d="M41.9 35.5l2.7 10.1-7.6 3.5m11.4 5.2v-6M32.3 35.8v-3.7m9.7 3.7v-3.7" class="cls-4" data-name="Path 107"/>
            <path id="Path_108" d="M45.2 24.2v.7a8.2 8.2 0 0 1-16.4 0 8.145 8.145 0 0 1 2.6-6m1.2 17.9a7.49 7.49 0 0 0 8.7 0" class="cls-3" data-name="Path 108"/>
            <path id="Path_109" d="M49.5 36.1V21.3a12.5 12.5 0 1 0-25 0v14.9m7-17.4a22.183 22.183 0 0 0 14.4 5.3M20.1 7.2H14V1.1H9.5v6.1H3.4v4.6h6.1v6.1H14v-6.1h6.1z" class="cls-3" data-name="Path 109"/>
            <g id="Group_21" data-name="Group 21" transform="translate(1 22)">
                <circle id="Ellipse_17" cx="2.1" cy="2.1" r="2.1" class="cls-15" data-name="Ellipse 17" transform="translate(8.6 .5)"/>
                <path id="Path_110" d="M9.8 4.7v25.1l.9 2.7.9-2.7V4.7M9.7 5.9A1.562 1.562 0 0 1 7.8 5c-.5-1.3-.6-1.7-2.7-1.6a17.617 17.617 0 0 1-4.8-.7S0 5.6 2.5 5.6l1.6.1" class="cls-4" data-name="Path 110"/>
                <path id="Path_111" d="M1.3 5.4S.9 7.1 3 7.6a7.411 7.411 0 0 0 2.7 0m-2.9.1s.1 1.5 3.1 1.8a6.949 6.949 0 0 0 3.8-.8m2-2.8a1.562 1.562 0 0 0 1.9-.9c.5-1.3.6-1.7 2.7-1.6a17.617 17.617 0 0 0 4.8-.7s.3 2.9-2.2 2.9l-1.6.1" class="cls-4" data-name="Path 111"/>
                <path id="Path_112" d="M20.1 5.4s.4 1.7-1.7 2.2a7.411 7.411 0 0 1-2.7 0m2.8.1s-.1 1.5-3.1 1.8a6.949 6.949 0 0 1-3.8-.8M8.2 30.8s-4.1-2.9.6-5.4a45.83 45.83 0 0 0 4.9-2.3c2.2-1.6 2.1-5.3-2.7-5.3-8.4-.1-7.5-6-3.6-6" class="cls-4" data-name="Path 112"/>
                <path id="Path_113" d="M12.9 30.8s4.1-2.9-.6-5.4a45.83 45.83 0 0 1-4.9-2.3c-2.2-1.6-2.1-5.3 2.7-5.3 8.4-.1 7.5-6 3.6-6" class="cls-4" data-name="Path 113"/>
            </g>
        </g>
        <g id="usluge-zakupa-x-2-c-prostora-x-2-c-skladi-tenja-roba-i-arhivske-gra-e" transform="translate(1817.5 138.9)">
            <path id="Path_114" d="M27.2.1L.7 18.7m53.1 0L27.2.1m0 5.8L.7 24.4m53.1 0L27.2 5.9M.7 24.4v-5.7m8.8-6.5V4m5.4 4.7V4m38.9 20.4v-5.7M9.5 4h5.4" class="cls-6" data-name="Path 114"/>
            <path id="Path_115" d="M4.9 21.4v27.1h7.3" class="cls-5" data-name="Path 115"/>
            <path id="Path_116" d="M21.3 26.7h-9.1v26.6h15.1" class="cls-6" data-name="Path 116"/>
            <path id="Path_117" d="M24.3 29.8h-8.8v16.4h11.8m-11.8 3.4h18.3m15.6-28.2v27.1h-7.2" class="cls-5" data-name="Path 117"/>
            <path id="Path_118" d="M33 26.7h9.2l-.1 26.6h-15" class="cls-6" data-name="Path 118"/>
            <path id="Path_119" d="M30 29.8h8.9v16.4H27.1m11.8 3.4h-2.7" class="cls-5" data-name="Path 119"/>
            <circle id="Ellipse_18" cx="2.5" cy="2.5" r="2.5" class="cls-8" data-name="Ellipse 18" transform="translate(24.7 16.4)"/>
            <path id="Path_120" d="M35.5 20.5a8.2 8.2 0 0 0-16.4 0 8.284 8.284 0 0 0 5.8 7.9v2.4l1.9 1.9-2.1 2.1 2 2-2 2v1.7l2.8 2.7 2.6-2.8V28.3a8.3 8.3 0 0 0 5.4-7.8z" class="cls-6" data-name="Path 120"/>
            <path id="Path_121" d="M4.9 42.4H.5m53.5 0h-4.6" class="cls-5" data-name="Path 121"/>
        </g>
    </g>
</svg>
