<svg xmlns="http://www.w3.org/2000/svg" width="109" height="109" viewBox="0 0 109 109">
    <defs>
        <style>
            .cls-1{fill:url(#linear-gradient)}.cls-2{fill:none;stroke:#fff;stroke-width:3px}.cls-3{fill:#fff;font-size:21px;font-family:Poppins-SemiBold,Poppins;font-weight:600;letter-spacing:.019em}
        </style>
        <linearGradient id="linear-gradient" x1=".771" x2=".218" y1=".062" y2=".928" gradientUnits="objectBoundingBox">
            <stop offset="0" stop-color="#4269a6"/>
            <stop offset="1" stop-color="#00b9b1"/>
        </linearGradient>
    </defs>
    <g id="Group_150" data-name="Group 150" transform="translate(-1253 -1275)">
        <circle id="Ellipse_21" cx="54.5" cy="54.5" r="54.5" class="cls-1" data-name="Ellipse 21" transform="translate(1253 1275)"/>
        <g id="notification" transform="translate(1276.425 1289.379)">
            <g id="Tenderi">
                <g id="Group-2">
                    <path id="Subtraction_1" d="M30.115 76.961a6.7 6.7 0 0 1-6.692-6.693h13.384a6.7 6.7 0 0 1-6.692 6.693zM60.23 63.577H0v-3.854l7.529-7.706V32.751a27.79 27.79 0 0 1 4.426-15.636A20.787 20.787 0 0 1 24.469 8.4V5.78a5.813 5.813 0 0 1 1.651-4.089 5.565 5.565 0 0 1 7.99 0 5.812 5.812 0 0 1 1.651 4.089V8.4a20.71 20.71 0 0 1 9.089 4.757 16.929 16.929 0 0 0 7.85 27.228v11.632l7.529 7.706v3.853z" class="cls-2" data-name="Subtraction 1"/>
                    <ellipse id="Oval" cx="16.92" cy="16.92" class="cls-2" rx="16.92" ry="16.92" transform="translate(40.746 7.284)"/>
                    <text id="_3" class="cls-3" data-name="3" transform="translate(51.442 30.764)">
                        <tspan x="0" y="0">3</tspan>
                    </text>
                </g>
            </g>
        </g>
    </g>
</svg>
