<svg xmlns="http://www.w3.org/2000/svg" width="109" height="111.617" viewBox="0 0 109 111.617">
    <defs>
        <style>
            .cls-1{fill:url(#linear-gradient)}.cls-2{fill:#fff}
        </style>
        <linearGradient id="linear-gradient" x1=".771" x2=".218" y1=".062" y2=".928" gradientUnits="objectBoundingBox">
            <stop offset="0" stop-color="#4269a6"/>
            <stop offset="1" stop-color="#00b9b1"/>
        </linearGradient>
    </defs>
    <g id="Group_147" data-name="Group 147" transform="translate(-697 -1275)">
        <circle id="Ellipse_20" cx="54.5" cy="54.5" r="54.5" class="cls-1" data-name="Ellipse 20" transform="translate(697 1275)"/>
        <g id="smartphone" transform="translate(712.986 1293.379)">
            <path id="Path_122" d="M38.115 50a5.439 5.439 0 1 0 5.439 5.439A5.445 5.445 0 0 0 38.115 50zm0 7.77a2.331 2.331 0 1 1 2.331-2.331 2.334 2.334 0 0 1-2.331 2.33z" class="cls-2" data-name="Path 122" transform="translate(6.72 27.698)"/>
            <path id="Path_123" d="M42.892 41.431a6.216 6.216 0 1 0-6.216-6.216 6.222 6.222 0 0 0 6.216 6.216zm0-9.324a3.108 3.108 0 1 1-3.108 3.108 3.111 3.111 0 0 1 3.108-3.108z" class="cls-2" data-name="Path 123" transform="translate(8.936 16.065)"/>
            <path id="Path_124" d="M17.23 14.215a1.55 1.55 0 0 0 1.1-.455l3.108-3.108a1.554 1.554 0 1 0-2.2-2.2L16.13 11.56a1.554 1.554 0 0 0 1.1 2.653z" class="cls-2" data-name="Path 124" transform="translate(-2.697 4.432)"/>
            <path id="Path_125" d="M77.8 46.226a5.085 5.085 0 0 0-1.5-3.619l-.866-.866A6.981 6.981 0 0 0 70.8 29.524a6.836 6.836 0 0 0-.839.062 6.837 6.837 0 0 0 .062-.839 7 7 0 0 0-6.993-6.993 6.836 6.836 0 0 0-.839.062 6.837 6.837 0 0 0 .062-.839 7 7 0 0 0-6.993-6.993 6.837 6.837 0 0 0-.839.062 6.837 6.837 0 0 0 .062-.839 6.981 6.981 0 0 0-12.212-4.629l-1.234-1.234L35.189 1.5a5.122 5.122 0 0 0-7.238 0L8.819 20.629a5.129 5.129 0 0 0 0 7.24l5.847 5.847 7.63 7.63a6.953 6.953 0 0 0-.413 11.872 2.3 2.3 0 0 0 .353.376L38.95 70.245v2.791h-3.108v20.2h40.4v-20.2h-3.105v-4.709a13.146 13.146 0 0 0 2.275-17.6l.887-.887a5.085 5.085 0 0 0 1.501-3.614zm-3.108-9.709a3.881 3.881 0 0 1-1.456 3.026l-5.456-5.456a3.882 3.882 0 0 1 6.912 2.43zm-7.77-7.77a3.881 3.881 0 0 1-1.456 3.026l-5.456-5.456a3.882 3.882 0 0 1 6.912 2.43zm-7.77-7.77A3.881 3.881 0 0 1 57.7 24l-5.456-5.456a3.882 3.882 0 0 1 6.912 2.43zM47.5 9.323a3.88 3.88 0 0 1 2.429 6.91l-5.459-5.456a3.887 3.887 0 0 1 3.03-1.454zm-36.484 16.35a2.016 2.016 0 0 1 0-2.845L30.148 3.7a1.484 1.484 0 0 1 1.009-.507 1.951 1.951 0 0 1 .827 0 1.982 1.982 0 0 1 .347.068 2.016 2.016 0 0 1 .662.438l3.65 3.65-21.976 21.973zM38.84 9.543l1.831 1.831 7.77 7.77.89.89 6.879 6.879.89.89 6.879 6.879.89.89 7.77 7.77L74.1 44.8a2.012 2.012 0 0 1 0 2.844l-.679.681L54.97 66.781a2.014 2.014 0 0 1-2.845 0L39.732 54.387h1.548a6.993 6.993 0 0 0 0-13.986H25.745l-8.882-8.882zM24.9 43.606l.645-.073a1.332 1.332 0 0 1 .193-.023h15.541a3.885 3.885 0 0 1 0 7.77H25.74a3.882 3.882 0 0 1-.838-7.673zm14.05 46.522V76.142h13.094a8.673 8.673 0 0 1 8.661 8.658v5.324zm34.187 0h-9.324V84.8a11.729 11.729 0 0 0-3.829-8.662h13.153zm.039-37.158a10.056 10.056 0 0 1-2.528 13.369l-.618.466v6.23H42.056v-4.224l-.549-.465c-.07-.061-.145-.117-.28-.218L27.434 54.385h7.9l14.59 14.592a5.127 5.127 0 0 0 7.24 0z" class="cls-2" data-name="Path 125" transform="translate(-7.324 .001)"/>
        </g>
    </g>
</svg>
