<svg xmlns="http://www.w3.org/2000/svg" width="109" height="109" viewBox="0 0 109 109">
    <defs>
        <style>
            .cls-1,.cls-2,.cls-3,.cls-8{fill:none}.cls-1{clip-rule:evenodd}.cls-2,.cls-8{stroke:#fff;stroke-width:3px}.cls-4{fill:url(#linear-gradient)}.cls-5{clip-path:url(#clip-path)}.cls-6{clip-path:url(#clip-path-2)}.cls-7{clip-path:url(#clip-path-3)}.cls-8{stroke-linecap:round;stroke-linejoin:round}
        </style>
        <linearGradient id="linear-gradient" x1=".771" x2=".218" y1=".062" y2=".928" gradientUnits="objectBoundingBox">
            <stop offset="0" stop-color="#4269a6"/>
            <stop offset="1" stop-color="#00b9b1"/>
        </linearGradient>
        <clipPath id="clip-path">
            <path id="Path_131" d="M.2-110.592h85.722v37.373H.2z" class="cls-1" data-name="Path 131" transform="translate(-.204 110.592)"/>
        </clipPath>
        <clipPath id="clip-path-2">
            <path id="Rectangle_3" d="M0 0h94.454v11.807H0z" class="cls-2" data-name="Rectangle 3"/>
        </clipPath>
        <clipPath id="clip-path-3">
            <path id="Path_130" d="M0-71.644h86.583V-111H0z" class="cls-3" data-name="Path 130" transform="translate(0 111)"/>
        </clipPath>
    </defs>
    <g id="Group_156" data-name="Group 156" transform="translate(-697 -1479)">
        <circle id="Ellipse_23" cx="54.5" cy="54.5" r="54.5" class="cls-4" data-name="Ellipse 23" transform="translate(697 1479)"/>
        <g id="Group_73" data-name="Group 73" transform="translate(708.867 1489.726)">
            <g id="Group_31" class="cls-5" data-name="Group 31" transform="translate(0 51.987)">
                <g id="Group_30" class="cls-6" data-name="Group 30" transform="translate(-4.737 22.009)">
                    <g id="Group_29" class="cls-7" data-name="Group 29" transform="translate(3.936 -23.613)">
                        <g id="Group_28" data-name="Group 28" transform="translate(3.054 29.933)">
                            <path id="Path_129" d="M83.466.5H0" class="cls-8" data-name="Path 129" transform="translate(0 -.5)"/>
                        </g>
                    </g>
                </g>
            </g>
            <g id="Group_32" data-name="Group 32" transform="translate(2.252 72.67)">
                <path id="Path_132" d="M33.809 0H3.612A3.562 3.562 0 0 0 0 3.512V7.63h37.42V3.512A3.562 3.562 0 0 0 33.809 0z" class="cls-8" data-name="Path 132"/>
            </g>
            <g id="Group_33" data-name="Group 33" transform="translate(11.963 29.452)">
                <path id="Path_133" d="M27.432 18.76L9.785 1.6a5.72 5.72 0 0 0-7.93 0L0 3.4l25.577 24.879 1.855-1.807a5.346 5.346 0 0 0 0-7.712z" class="cls-8" data-name="Path 133"/>
            </g>
            <g id="Group_34" data-name="Group 34" transform="translate(42.247)">
                <path id="Path_134" d="M1.643 9.515l17.646 17.163a5.72 5.72 0 0 0 7.93 0l1.854-1.8L3.5 0 1.643 1.8a5.346 5.346 0 0 0 0 7.715z" class="cls-8" data-name="Path 134"/>
            </g>
            <g id="Group_35" data-name="Group 35" transform="translate(57.768 44.819)">
                <path id="Path_135" d="M0 5.151L21.537 26.1a3.82 3.82 0 0 0 5.3 0 3.572 3.572 0 0 0 0-5.151L5.3 0z" class="cls-8" data-name="Path 135"/>
            </g>
            <g id="Group_36" data-name="Group 36" transform="translate(46.574 34.098)">
                <path id="Path_136" d="M0 6.141l10.619 10.328 6.314-6.142L6.314 0z" class="cls-8" data-name="Path 136"/>
            </g>
            <g id="Group_37" data-name="Group 37" transform="translate(22.294 10.047)">
                <path id="Path_137" d="M0 21.533l16.6 16.148 22.146-21.534L22.141 0z" class="cls-8" data-name="Path 137"/>
            </g>
            <g id="Group_38" data-name="Group 38" transform="translate(5.283 68.505)">
                <path id="Path_138" d="M29.826 0H1.47L0 4.164h31.3z" class="cls-8" data-name="Path 138"/>
            </g>
        </g>
    </g>
</svg>
