<svg xmlns="http://www.w3.org/2000/svg" width="109" height="109" viewBox="0 0 109 109">
    <defs>
        <style>
            .cls-1{fill:url(#linear-gradient)}.cls-2{fill:none;stroke:#fff;stroke-linejoin:round;stroke-width:3px}
        </style>
        <linearGradient id="linear-gradient" x1=".771" x2=".218" y1=".062" y2=".928" gradientUnits="objectBoundingBox">
            <stop offset="0" stop-color="#4269a6"/>
            <stop offset="1" stop-color="#00b9b1"/>
        </linearGradient>
    </defs>
    <g id="Group_154" data-name="Group 154" transform="translate(-141 -1479)">
        <circle id="Ellipse_22" cx="54.5" cy="54.5" r="54.5" class="cls-1" data-name="Ellipse 22" transform="translate(141 1479)"/>
        <g id="Group_71" data-name="Group 71" transform="translate(525.628 968.427)">
            <path id="Montenegro" d="M-330.9 574.591c-.924.264-3.427-.265-3.559.4-.4 1.849 2.9 1.981 1.849 4.755-1.321-.925-1.321-1.849-2.774-1.717-1.849 2.113-1.585 5.151-2.113 5.811-1.056 1.321-1.453-.66-1.849 1.321-.66 3.83 3.434 3.962.4 6.867l.529 1.981a8.655 8.655 0 0 0 1.849.133c-.264.264-.529.528-.4.924 1.849 4.094 2.246.264 4.1 1.189.4.264.132.792.4 1.188 1.056 1.321 2.377 1.057 3.3 2.51.264.4 0 1.188.4 1.584a6.059 6.059 0 0 0 2.9 1.453v-2.641c0-.528.265-1.189 0-1.717-.4-.66-1.584-.66-1.717-1.321 0-.132 4.227-8.716 4.623-8.981.132-.132.792 3.17 1.849 3.3 0 0 2.613-2.128 2.789-2.25.488-1.244-.808-1.926-1.375-2.528-.941-1.1 1.838-1.641 2.587-1.048.506-1.509 2.91-1.386 1.7-3.169-.85.1-2.6-.88-3.84-.44-2.708-1.266-2.309-1.923-5.031-2.687A8.426 8.426 0 0 1-327.1 577c-.6-1.405-3.174-.763-3.8-2.409z" class="cls-2"/>
            <path id="Path_143" d="M-339.343 585.156c.229-1.146.46-.967.817-.867.065-.07.133 0 .244.037.215 0 .472-.095.788-.491.528-.66.264-3.7 2.113-5.811 1.453-.132 1.453.792 2.774 1.717 1.056-2.774-2.245-2.906-1.849-4.755.033-.165.214-.256.483-.3.67-.119 1.882.033 2.669-.027a2.09 2.09 0 0 0 .407-.065h.007c.528-.66.66-1.717 1.452-1.981.661-.264 1.321 1.057 1.849.66 1.585-1.717-4.358-7.264-4.358-7.264.661-.924 3.962 1.981 4.755-.66.4-1.189-.925-.792-1.321-.924-1.189-.661-1.453-2.378-2.641-2.906-1.849-.792-2.642 1.321-3.17-1.585-.4-2.509 1.981-5.283 1.981-9.377-2.377-.132-3.7 1.717-6.207 1.453-1.453-.264-.661-3.566-3.7-3.7-.4 0 0 .924-.4.924-.528 0-.924-.792-1.452-.924a4.077 4.077 0 0 0-2.51 0c-.792.264.925 1.321-.528.924-.792-.264-1.321-1.056-2.113-.924-.528 0-.4.924-.793 1.188a.992.992 0 0 1-.924.661c-1.717.264-5.283-1.717-6.868-1.585-.4.132-.528.66-.792.66a1.4 1.4 0 0 1-1.057-.132 7.556 7.556 0 0 1-3.037-1.453c-.529.4-.529 1.453-1.057 1.585-1.849.4-2.509-1.717-3.962 0-.793 1.057-.528 3.566-2.113 3.7-1.189-.66-3.434-3.566-4.755-3.566-2.9-.132-1.981 7.528-1.453 7.925.661.528 1.717.528 2.246 1.188 1.452 1.321 1.849 3.434 2.9 5.019.4.4 1.057.528 1.189 1.057 0 .264-1.585 1.717-.925 2.377.4.264.925-.264 1.321-.132.925.4 3.962 3.434 4.755 3.962 2.377 1.981 4.094 5.151 6.867 6.868.661.264 1.585.132 1.981.66.529.792.132 1.981.661 2.773.528.925 6.207 3.17 5.547 4.887-.132.66-1.321.528-1.585 1.057-.132.4.792.528 1.188.528.793 0 1.585-.792 2.246-.528.924.264 1.188 1.452 1.981 2.113 3.3 2.377 5.679 1.056 7.264 4.886l-.529-1.981c3.048-2.909-1.043-3.041-.386-6.871z" class="cls-2" data-name="Path 143"/>
            <path id="Path_144" d="M-282.948 572.609c-.781-1.344-5.552-2.386-6.34-3.434-1.585-1.321-4.094-6.868-3.17-8.849.4-.924 1.849-.792 2.378-1.584a2.024 2.024 0 0 0 .147-.65 3.839 3.839 0 0 0-1.67-3.358 2.975 2.975 0 0 1-1.515-2.86c.132-1.189 2.515-2.046 1.243-2.8-6.323-3.732-6.542.166-9.828 1.343a3.646 3.646 0 0 1-2.377.132c-.4-.264-.132-.924-.4-1.453-.66-1.32-6.34.793-3.17-1.452.793-.529 2.774-1.057 2.113-1.585-.66-.4-1.981 0-2.245-.793-.132-.792 2.642-2.245.793-3.3-2.51-1.452-7.529-.792-9.245-3.83-.4-.66-.833-5.269-3.17-6.867-.793-.529-1.981-.4-2.774-1.057a2.425 2.425 0 0 1-.78-.661 6.329 6.329 0 0 0-2.175-1.771 1.778 1.778 0 0 0-.743-.209c-.132 0-3.566 1.056-3.7 1.056-1.951-.226-2.034-.426-2.773-.132-1.453.793-2.245 2.377-3.434 3.3s-1.717-.4-2.113 0c-3.673 2.633-1.057 4.755-1.321 7.792 0 1.321 2.774-.4 2.642 1.057-.133.792-2.764 1.409-1.189 2.509a10.392 10.392 0 0 0 5.547 1.585c.4 2.641-2.518 1.106-3.414 1.544-.729.25-.945 1.494.772 3.21a.4.4 0 0 1 0 .529c-.528.924-2.509.264-1.32 1.585 1.32-.4 2.377-1.189 3.83-1.057 0 4.094-2.377 6.868-1.981 9.377.528 2.906 1.32.792 3.169 1.585 1.189.528 1.453 2.245 2.642 2.9.4.133 1.717-.264 1.321.925-.793 2.641-4.1-.264-4.755.66 0 0 5.943 5.547 4.358 7.264-.528.4-1.188-.924-1.849-.66-.8.256-1.008 1.493-1.451 1.979a1.3 1.3 0 0 0 .141.245 1.723 1.723 0 0 0 .617.626c.667.375 1.591.472 2.267.8a1.463 1.463 0 0 1 .766.743 13.416 13.416 0 0 0 1.222 1.373c.135.126.281.247.436.368a9.6 9.6 0 0 0 1.149.761c2.722.764 2.323 1.421 5.031 2.687 1.238-.44 2.989.535 3.839.44a1.512 1.512 0 0 1 .332.892c.006.01.011.026.017.036a.72.72 0 0 1-.028.082.723.723 0 0 1-.057.166.86.86 0 0 1-.041.08 1.214 1.214 0 0 1-.179.22l-.009.009a5.022 5.022 0 0 1-.655.49 7.36 7.36 0 0 0-.261.186l-.049.037a3.189 3.189 0 0 0-.3.257 2.221 2.221 0 0 0-.238.282.95.95 0 0 0-.062.1 1.588 1.588 0 0 0-.134.271c-.009.022-.021.041-.029.064l-.007.014c-.75-.593-3.5-.071-2.563 1.031a10.621 10.621 0 0 1 1.16 1.161 1.346 1.346 0 0 1 .2 1.375c2.094.017 1.705 3.308 2.89 3.967.4.264.785-.257 1.313-.125a5.814 5.814 0 0 1 2.531 1.312c1.716 1.9 1.438 5.688 1.438 5.688 3.3 2.245 1.457-3.316 2.25-3.844 1.453-.924 3.033-2.118 4.75-2.25.66 0 1.711-.135 1.843-.531 1.029-2.514 4.592-1.4 4.937-1.453 2.113-.4 6.164-4.608 7.881-3.023.66-1.189 2.509-1.453 1.849-3.17a1.836 1.836 0 0 0-.925-1.056c-.264-.133-.66.132-.792-.133a9.935 9.935 0 0 1 0-1.981c-.132-.792-1.013-1.56-.661-2.245.941-1.83 2.461-1.122 3.7-1.849 1.426-.646 3.013-4.091 2.378-6.073z" class="cls-2" data-name="Path 144"/>
        </g>
    </g>
</svg>
