<svg xmlns="http://www.w3.org/2000/svg" xmlns:xlink="http://www.w3.org/1999/xlink" width="179.284" height="50.638" viewBox="0 0 179.284 50.638">
    <defs>
        <style>
            .cls-1{fill:url(#linear-gradient)}.cls-2{fill:url(#linear-gradient-2)}.cls-3{fill:url(#linear-gradient-3)}.cls-4{fill:url(#linear-gradient-4)}.cls-5{fill:url(#linear-gradient-5)}.cls-6{fill:url(#linear-gradient-6)}.cls-7{fill:url(#linear-gradient-7)}.cls-8{fill:url(#radial-gradient)}.cls-9{fill:url(#radial-gradient-2)}
        </style>
        <linearGradient id="linear-gradient" x1="-5.373" x2="2.705" y1="-1.593" y2="1.263" gradientUnits="objectBoundingBox">
            <stop offset="0" stop-color="#fff"/>
            <stop offset="1" stop-color="#00b9b1"/>
        </linearGradient>
        <linearGradient id="linear-gradient-2" x1="-6.516" x2="2.086" y1="-2.451" y2="1.152" xlink:href="#linear-gradient"/>
        <linearGradient id="linear-gradient-3" x1="-6.669" x2="1.18" y1="-2.805" y2=".862" xlink:href="#linear-gradient"/>
        <linearGradient id="linear-gradient-4" x1="-6.863" x2=".403" y1="-2.222" y2=".428" xlink:href="#linear-gradient"/>
        <linearGradient id="linear-gradient-5" x1="-9.128" x2="-.525" y1="-3.545" y2=".058" xlink:href="#linear-gradient"/>
        <linearGradient id="linear-gradient-6" x1="-11.012" x2="-1.464" y1="-3.916" y2="-.249" xlink:href="#linear-gradient"/>
        <linearGradient id="linear-gradient-7" x1="-17" x2="-3.035" y1="-2.848" y2="-.164" xlink:href="#linear-gradient"/>
        <radialGradient id="radial-gradient" cx="73.517" cy="58.829" r="68.409" gradientTransform="matrix(.931 0 0 .931 -11.527 -12.487)" xlink:href="#linear-gradient"/>
        <radialGradient id="radial-gradient-2" cx="-897.262" cy="-902.288" r="110.974" gradientTransform="matrix(.574 0 0 .574 -497.504 -499.224)" xlink:href="#linear-gradient"/>
    </defs>
    <g id="Group_6" data-name="Group 6">
        <g id="Group_4" data-name="Group 4" transform="translate(59.81 10.649)">
            <path id="Path_10" d="M385.66 295.037H380l4.717-22.362h-6.538l1.022-4.792h18.759l-1.022 4.792h-6.556z" class="cls-1" data-name="Path 10" transform="translate(-378.175 -266.137)"/>
            <path id="Path_11" d="M424.276 303.222a8.312 8.312 0 0 1-6.055-2.1 7.89 7.89 0 0 1-2.154-5.924 15.885 15.885 0 0 1 1.532-7.012 11.447 11.447 0 0 1 4.151-4.829 10.818 10.818 0 0 1 5.925-1.662 7.846 7.846 0 0 1 5.126 1.513 5.09 5.09 0 0 1 1.839 4.151 5.941 5.941 0 0 1-3.1 5.358q-3.1 1.885-8.859 1.885h-.947l-.037.39v.372a3.354 3.354 0 0 0 3.7 3.64 11.341 11.341 0 0 0 2.934-.353 19.419 19.419 0 0 0 3.195-1.244v4.216a15.976 15.976 0 0 1-7.25 1.599zm3.046-17.5a4.287 4.287 0 0 0-3.083 1.486 7.169 7.169 0 0 0-1.894 3.622h.836a9.244 9.244 0 0 0 4.485-.9 2.726 2.726 0 0 0 1.607-2.442q-.001-1.762-1.951-1.762z" class="cls-2" data-name="Path 11" transform="translate(-399.609 -273.951)"/>
            <path id="Path_12" d="M474.794 302.85H469.2l2.545-12.128a9.85 9.85 0 0 0 .3-2.21q0-2.285-2.006-2.284-1.71 0-3.1 2.117a17.374 17.374 0 0 0-2.191 5.906l-1.821 8.6h-5.59l4.4-20.765h4.272l-.39 3.845h.111q2.712-4.235 6.593-4.234a5.072 5.072 0 0 1 3.966 1.55 6.383 6.383 0 0 1 1.4 4.429 16.4 16.4 0 0 1-.428 3.344z" class="cls-3" data-name="Path 12" transform="translate(-422.953 -273.951)"/>
            <path id="Path_13" d="M513.113 293.135a5.18 5.18 0 0 1-4.3-1.988 8.787 8.787 0 0 1-1.569-5.572 18.529 18.529 0 0 1 1.328-6.956 12.92 12.92 0 0 1 3.5-5.163 7.229 7.229 0 0 1 4.792-1.848 4.874 4.874 0 0 1 2.628.687 6.705 6.705 0 0 1 2.09 2.359h.148l.037-.52a22.335 22.335 0 0 1 .464-3.622l1.412-6.649h5.591l-6.129 28.9h-4.253l.26-2.693h-.074a8.694 8.694 0 0 1-2.759 2.34 6.94 6.94 0 0 1-3.166.725zm2.34-4.514a3.285 3.285 0 0 0 2.386-1.272 9.349 9.349 0 0 0 1.867-3.39 14.3 14.3 0 0 0 .706-4.55 3.754 3.754 0 0 0-.7-2.377 2.284 2.284 0 0 0-1.9-.891 3.211 3.211 0 0 0-2.405 1.337 9.854 9.854 0 0 0-1.82 3.529 14.637 14.637 0 0 0-.678 4.346q0 3.269 2.544 3.269z" class="cls-4" data-name="Path 13" transform="translate(-451.184 -263.864)"/>
            <path id="Path_14" d="M562.238 303.222a8.313 8.313 0 0 1-6.055-2.1 7.888 7.888 0 0 1-2.154-5.924 15.893 15.893 0 0 1 1.532-7.012 11.452 11.452 0 0 1 4.151-4.829 10.816 10.816 0 0 1 5.924-1.662 7.847 7.847 0 0 1 5.126 1.513 5.09 5.09 0 0 1 1.838 4.151 5.941 5.941 0 0 1-3.1 5.358q-3.1 1.885-8.86 1.885h-.947l-.037.39v.372a3.354 3.354 0 0 0 3.7 3.64 11.337 11.337 0 0 0 2.934-.353 19.393 19.393 0 0 0 3.2-1.244v4.216a15.976 15.976 0 0 1-7.252 1.599zm3.046-17.5a4.287 4.287 0 0 0-3.083 1.486 7.17 7.17 0 0 0-1.894 3.622h.836a9.243 9.243 0 0 0 4.485-.9 2.725 2.725 0 0 0 1.607-2.442q-.001-1.762-1.951-1.762z" class="cls-5" data-name="Path 14" transform="translate(-477.648 -273.951)"/>
            <path id="Path_15" d="M610.249 281.7a6.406 6.406 0 0 1 1.783.2l-1.226 5.386a5.512 5.512 0 0 0-1.857-.3 5.076 5.076 0 0 0-3.78 1.7 9.938 9.938 0 0 0-2.312 4.875l-1.969 9.286H595.3l4.4-20.765h4.272l-.39 3.845h.111q2.73-4.227 6.556-4.227z" class="cls-6" data-name="Path 15" transform="translate(-500.992 -273.951)"/>
            <path id="Path_16" d="M632.494 292.763H626.9l4.4-20.765h5.59zm-.3-25.63a3.188 3.188 0 0 1 .883-2.442 3.515 3.515 0 0 1 2.5-.827 3.2 3.2 0 0 1 2.062.576 2.011 2.011 0 0 1 .706 1.653 3.483 3.483 0 0 1-.818 2.4 3.21 3.21 0 0 1-2.526.92q-2.801.005-2.801-2.28z" class="cls-7" data-name="Path 16" transform="translate(-518.871 -263.864)"/>
        </g>
        <g id="Group_5" data-name="Group 5">
            <path id="Path_17" d="M268.008 239.393a25.31 25.31 0 0 0-23.508 28.939l-4.031 2.405 4.206-1.345 6.433-2.056a18.6 18.6 0 0 1 36.148-8.289l.934 2.948-29.166 9.311a12.42 12.42 0 0 0 21.979-1.906l5.716 2.361a18.6 18.6 0 0 1-33.715 1.468l-6.443 2.057-4.208 1.343 4.683-.378a25.32 25.32 0 1 0 20.969-36.857z" class="cls-8" data-name="Path 17" transform="translate(-240.472 -239.347)"/>
            <path id="Path_18" d="M286.668 269.892a12.48 12.48 0 0 0-7.876 12.318l22.931-7.329a12.441 12.441 0 0 0-15.055-4.989z" class="cls-9" data-name="Path 18" transform="translate(-262.136 -256.143)"/>
        </g>
    </g>
</svg>
