<svg xmlns="http://www.w3.org/2000/svg" width="109" height="109" viewBox="0 0 109 109">
    <defs>
        <style>
            .cls-1{fill:url(#linear-gradient)}.cls-2{fill:none;stroke:#fff;stroke-linecap:round;stroke-linejoin:round;stroke-width:3px}
        </style>
        <linearGradient id="linear-gradient" x1=".771" x2=".218" y1=".062" y2=".928" gradientUnits="objectBoundingBox">
            <stop offset="0" stop-color="#4269a6"/>
            <stop offset="1" stop-color="#00b9b1"/>
        </linearGradient>
    </defs>
    <g id="Group_158" data-name="Group 158" transform="translate(-1253 -1479)">
        <circle id="Ellipse_24" cx="54.5" cy="54.5" r="54.5" class="cls-1" data-name="Ellipse 24" transform="translate(1253 1479)"/>
        <g id="Group_85" data-name="Group 85" transform="translate(1275.201 1522.638)">
            <g id="Group_76" data-name="Group 76" transform="translate(12.071 -20.44)">
                <path id="Path_145" d="M0 0l20.584 17.649-12.107 5.816L0 11.05" class="cls-2" data-name="Path 145"/>
            </g>
            <g id="Group_77" data-name="Group 77" transform="translate(12.072 -20.44)">
                <path id="Path_146" d="M41.455.17H0" class="cls-2" data-name="Path 146" transform="translate(0 -.17)"/>
            </g>
            <g id="Group_78" data-name="Group 78" transform="translate(19.405 -14.331)">
                <path id="Path_147" d="M26.762.17H0" class="cls-2" data-name="Path 147" transform="translate(0 -.17)"/>
            </g>
            <g id="Group_79" data-name="Group 79" transform="translate(32.952 -20.44)">
                <path id="Path_148" d="M20.575 0L0 17.649l12.1 5.816 8.475-12.415" class="cls-2" data-name="Path 148"/>
            </g>
            <g id="Group_80" data-name="Group 80" transform="translate(27.022 .455)">
                <path id="Path_149" d="M5.754 3.788H2.237L0 0" class="cls-2" data-name="Path 149"/>
            </g>
            <g id="Group_81" data-name="Group 81" transform="translate(24.529 4.243)">
                <path id="Path_150" d="M5.316 0L0 24.411l8.1 7.42" class="cls-2" data-name="Path 150"/>
            </g>
            <g id="Group_82" data-name="Group 82" transform="translate(32.517 .455)">
                <path id="Path_151" d="M0 3.788h3.515L5.754 0" class="cls-2" data-name="Path 151"/>
            </g>
            <g id="Group_83" data-name="Group 83" transform="translate(32.681 4.243)">
                <path id="Path_152" d="M2.787 0L8.1 24.411 0 31.831" class="cls-2" data-name="Path 152"/>
            </g>
            <g id="Group_84" data-name="Group 84" transform="translate(1.225 -20.44)">
                <path id="Path_153" d="M52.3 0v11.05l7.364 3.319a5.862 5.862 0 0 1 3.485 5.331v34.233A8.137 8.137 0 0 1 54.942 62H8.2A8.135 8.135 0 0 1 0 53.933V19.7a5.86 5.86 0 0 1 3.48-5.33l7.367-3.319V0" class="cls-2" data-name="Path 153"/>
            </g>
        </g>
    </g>
</svg>
