<svg xmlns="http://www.w3.org/2000/svg" id="Group_141" width="101.131" height="28.564" data-name="Group 141" viewBox="0 0 101.131 28.564">
    <defs>
        <style>
            .cls-1{fill:url(#linear-gradient)}
        </style>
        <linearGradient id="linear-gradient" x1="-5.373" x2="2.705" y1="-1.593" y2="1.263" gradientUnits="objectBoundingBox">
            <stop offset="0" stop-color="#fff"/>
            <stop offset="1" stop-color="#9ea8b8"/>
        </linearGradient>
    </defs>
    <g id="Group_4" data-name="Group 4" transform="translate(33.738 6.007)">
        <path id="Path_10" d="M382.4 283.2h-3.2l2.661-12.614h-3.688l.576-2.7h10.581l-.576 2.7h-3.7z" class="cls-1" data-name="Path 10" transform="translate(-378.175 -266.898)"/>
        <path id="Path_11" d="M420.7 293.838a4.689 4.689 0 0 1-3.415-1.184 4.451 4.451 0 0 1-1.215-3.342 8.96 8.96 0 0 1 .864-3.955 6.457 6.457 0 0 1 2.341-2.724 6.1 6.1 0 0 1 3.342-.938 4.426 4.426 0 0 1 2.892.854 2.871 2.871 0 0 1 1.037 2.342 3.351 3.351 0 0 1-1.75 3.022 9.685 9.685 0 0 1-5 1.064h-.534l-.021.22v.21a1.892 1.892 0 0 0 2.085 2.053 6.4 6.4 0 0 0 1.655-.2 10.955 10.955 0 0 0 1.8-.7v2.378a9.012 9.012 0 0 1-4.081.9zm1.718-9.869a2.418 2.418 0 0 0-1.739.838 4.044 4.044 0 0 0-1.068 2.043h.471a5.214 5.214 0 0 0 2.53-.508 1.538 1.538 0 0 0 .906-1.378q-.002-.995-1.102-.995z" class="cls-1" data-name="Path 11" transform="translate(-406.783 -277.327)"/>
        <path id="Path_12" d="M467.184 293.629h-3.153l1.435-6.841a5.556 5.556 0 0 0 .168-1.247q0-1.289-1.131-1.288a2.172 2.172 0 0 0-1.75 1.194 9.8 9.8 0 0 0-1.236 3.332l-1.027 4.851h-3.153l2.483-11.713h2.41l-.22 2.169h.063a4.4 4.4 0 0 1 3.719-2.389 2.861 2.861 0 0 1 2.237.875 3.6 3.6 0 0 1 .791 2.5 9.251 9.251 0 0 1-.241 1.886z" class="cls-1" data-name="Path 12" transform="translate(-437.941 -277.327)"/>
        <path id="Path_13" d="M510.554 280.375a2.922 2.922 0 0 1-2.425-1.121 4.957 4.957 0 0 1-.885-3.143 10.452 10.452 0 0 1 .749-3.923 7.287 7.287 0 0 1 1.975-2.913 4.078 4.078 0 0 1 2.7-1.042 2.749 2.749 0 0 1 1.482.388 3.781 3.781 0 0 1 1.179 1.331h.084l.021-.293a12.6 12.6 0 0 1 .262-2.043l.8-3.751h3.154l-3.457 16.3h-2.4l.147-1.519h-.04a4.9 4.9 0 0 1-1.556 1.32 3.914 3.914 0 0 1-1.79.409zm1.32-2.546a1.853 1.853 0 0 0 1.346-.718 5.275 5.275 0 0 0 1.053-1.912 8.07 8.07 0 0 0 .4-2.567 2.118 2.118 0 0 0-.393-1.341 1.288 1.288 0 0 0-1.074-.5 1.811 1.811 0 0 0-1.357.754 5.559 5.559 0 0 0-1.027 1.991 8.256 8.256 0 0 0-.382 2.452q-.001 1.841 1.435 1.841z" class="cls-1" data-name="Path 13" transform="translate(-475.621 -263.864)"/>
        <path id="Path_14" d="M558.66 293.838a4.689 4.689 0 0 1-3.415-1.184 4.449 4.449 0 0 1-1.215-3.342 8.965 8.965 0 0 1 .864-3.955 6.46 6.46 0 0 1 2.342-2.724 6.1 6.1 0 0 1 3.342-.938 4.426 4.426 0 0 1 2.892.854 2.871 2.871 0 0 1 1.037 2.342 3.351 3.351 0 0 1-1.749 3.022 9.687 9.687 0 0 1-5 1.064h-.534l-.021.22v.21a1.892 1.892 0 0 0 2.085 2.053 6.4 6.4 0 0 0 1.655-.2 10.94 10.94 0 0 0 1.8-.7v2.378a9.012 9.012 0 0 1-4.083.9zm1.718-9.869a2.418 2.418 0 0 0-1.739.838 4.045 4.045 0 0 0-1.068 2.043h.471a5.214 5.214 0 0 0 2.53-.508 1.537 1.537 0 0 0 .906-1.378q0-.995-1.1-.995z" class="cls-1" data-name="Path 14" transform="translate(-510.944 -277.327)"/>
        <path id="Path_15" d="M603.732 281.7a3.615 3.615 0 0 1 1.006.115l-.692 3.038a3.109 3.109 0 0 0-1.047-.168 2.863 2.863 0 0 0-2.132.959 5.606 5.606 0 0 0-1.3 2.75l-1.111 5.238H595.3l2.483-11.713h2.41l-.22 2.169h.063a4.4 4.4 0 0 1 3.696-2.388z" class="cls-1" data-name="Path 15" transform="translate(-542.102 -277.327)"/>
        <path id="Path_16" d="M630.057 280.166H626.9l2.483-11.713h3.153zm-.168-14.458a1.8 1.8 0 0 1 .5-1.378 1.983 1.983 0 0 1 1.409-.466 1.8 1.8 0 0 1 1.163.325 1.135 1.135 0 0 1 .4.932 1.964 1.964 0 0 1-.461 1.357 1.811 1.811 0 0 1-1.425.519q-1.585.003-1.585-1.289z" class="cls-1" data-name="Path 16" transform="translate(-565.964 -263.864)"/>
    </g>
    <g id="Group_5" data-name="Group 5">
        <path id="Path_17" d="M256 239.373a14.277 14.277 0 0 0-13.254 16.327l-2.274 1.357 2.372-.759 3.629-1.16a10.495 10.495 0 0 1 20.391-4.676l.527 1.663-16.452 5.252a7.006 7.006 0 0 0 12.4-1.075l3.224 1.332a10.494 10.494 0 0 1-19.018.828l-3.634 1.16-2.374.758 2.642-.213A14.282 14.282 0 1 0 256 239.373z" class="cls-1" data-name="Path 17" transform="translate(-240.472 -239.347)"/>
        <path id="Path_18" d="M283.225 269.521a7.04 7.04 0 0 0-4.443 6.948l12.935-4.134a7.018 7.018 0 0 0-8.492-2.814z" class="cls-1" data-name="Path 18" transform="translate(-269.388 -261.765)"/>
    </g>
</svg>
