<svg xmlns="http://www.w3.org/2000/svg" width="22.574" height="22.574" viewBox="0 0 22.574 22.574">
    <defs>
        <style>
            .cls-1{fill:#fff}
        </style>
    </defs>
    <g id="play-button_1_" data-name="play-button (1)" transform="translate(0 -.002)">
        <g id="_x33_56._Play" transform="translate(0 .002)">
            <g id="Group_7" data-name="Group 7">
                <path id="Path_20" d="M21.06 5.646a11.285 11.285 0 1 0-4.131 15.416A11.285 11.285 0 0 0 21.06 5.646zM15.8 19.107a9.028 9.028 0 1 1 3.3-12.332 9.027 9.027 0 0 1-3.3 12.332zm-.45-8.277L9.441 7.384c-.539-.314-.973-.063-.97.56l.03 6.841c0 .623.442.876.982.564l5.864-3.386a.6.6 0 0 0 .003-1.133z" class="cls-1" data-name="Path 20" transform="translate(0 -.002)"/>
            </g>
        </g>
    </g>
</svg>
